<svg width="58" height="58" viewBox="0 0 58 58" fill="none" xmlns="http://www.w3.org/2000/svg">
<path fill-rule="evenodd" clip-rule="evenodd" d="M0 58H58V0H0V58Z" fill="#3FD7E1"/>
<path d="M8.18 50L11.492 41.24H13.16L16.472 50H14.732L14.156 48.404H10.496L9.92 50H8.18ZM12.332 43.388L11.06 46.868H13.592L12.332 43.388ZM16.832 50L20.144 41.24H21.812L25.124 50H23.384L22.808 48.404H19.148L18.572 50H16.832ZM20.984 43.388L19.712 46.868H22.244L20.984 43.388ZM25.484 50L28.796 41.24H30.464L33.776 50H32.036L31.46 48.404H27.8L27.224 50H25.484ZM29.636 43.388L28.364 46.868H30.896L29.636 43.388Z" fill="#20123A"/>
</svg>
