<?xml version="1.0" encoding="UTF-8"?>
<svg width="58px" height="58px" viewBox="0 0 58 58" version="1.1" xmlns="http://www.w3.org/2000/svg" xmlns:xlink="http://www.w3.org/1999/xlink">
    <!-- Generator: Sketch 55.2 (78181) - https://sketchapp.com -->
    <title>Group 19</title>
    <desc>Created with Sketch.</desc>
    <g id="Assets" stroke="none" stroke-width="1" fill="none" fill-rule="evenodd">
        <g id="Group-19">
            <polygon id="Fill-14" fill="#3FE1B0" points="0 58 58 58 58 0 0 0"></polygon>
            <path d="M8.18,50 L11.492,41.24 L13.16,41.24 L16.472,50 L14.732,50 L14.156,48.404 L10.496,48.404 L9.92,50 L8.18,50 Z M12.332,43.388 L11.06,46.868 L13.592,46.868 L12.332,43.388 Z M16.832,50 L20.144,41.24 L21.812,41.24 L25.124,50 L23.384,50 L22.808,48.404 L19.148,48.404 L18.572,50 L16.832,50 Z M20.984,43.388 L19.712,46.868 L22.244,46.868 L20.984,43.388 Z M25.484,50 L28.796,41.24 L30.464,41.24 L33.776,50 L32.036,50 L31.46,48.404 L27.8,48.404 L27.224,50 L25.484,50 Z M29.636,43.388 L28.364,46.868 L30.896,46.868 L29.636,43.388 Z" id="AAA" fill="#20123A" fill-rule="nonzero"></path>
        </g>
    </g>
</svg>