<svg width="565" height="205" viewBox="0 0 565 205" fill="none" xmlns="http://www.w3.org/2000/svg">
<path d="M235.166 80.7836C234.063 79.5155 232.678 78.5202 231.119 77.8769C229.159 77.1124 227.064 76.7486 224.958 76.8073C222.965 76.7986 220.985 77.1249 219.102 77.7723C217.287 78.4027 215.553 79.2437 213.936 80.2778C211.185 82.01 208.834 84.3001 207.037 86.998L208.46 79.8476C208.534 79.5272 208.505 79.192 208.378 78.8884C208.204 78.5757 207.918 78.3393 207.576 78.2257C207.057 78.0363 206.516 77.9132 205.965 77.8595C205.087 77.7607 204.203 77.7161 203.318 77.7258C202.418 77.7191 201.519 77.7637 200.624 77.8595C199.998 77.919 199.38 78.0417 198.779 78.2257C198.369 78.3397 197.997 78.5605 197.702 78.8652C197.468 79.1361 197.309 79.4626 197.239 79.8127L187.904 126.028C187.829 126.352 187.87 126.691 188.021 126.988C188.245 127.324 188.584 127.568 188.976 127.674C189.606 127.886 190.262 128.019 190.926 128.069C191.979 128.166 193.037 128.209 194.094 128.197C195.359 128.197 196.437 128.156 197.28 128.069C198.001 128.014 198.713 127.883 199.406 127.679C199.865 127.555 200.288 127.326 200.642 127.011C200.906 126.753 201.087 126.423 201.163 126.063L205.386 105.135C205.825 102.863 206.595 100.666 207.67 98.613C208.666 96.6824 209.898 94.8804 211.336 93.2473C212.585 91.8148 214.056 90.5884 215.693 89.614C217.019 88.7875 218.544 88.3279 220.109 88.2827C221.638 88.2827 222.733 88.7768 223.371 89.7419C224.062 90.8818 224.402 92.1972 224.349 93.5263C224.345 94.2857 224.302 95.0443 224.22 95.7993C224.141 96.6383 224.018 97.4727 223.851 98.299L218.223 125.988C218.141 126.315 218.192 126.662 218.364 126.953C218.598 127.278 218.933 127.517 219.318 127.633C219.941 127.848 220.588 127.981 221.245 128.028C222.297 128.125 223.352 128.168 224.408 128.156C225.481 128.167 226.554 128.124 227.623 128.028C228.336 127.972 229.04 127.841 229.726 127.639C230.183 127.511 230.606 127.283 230.961 126.97C231.224 126.712 231.403 126.382 231.477 126.023L237.263 97.5375C237.509 96.2586 237.708 95.0029 237.849 93.8053C238.003 92.6003 238.081 91.3868 238.083 90.172C238.094 88.4416 237.863 86.7181 237.398 85.0505C236.975 83.4841 236.214 82.0279 235.166 80.7836V80.7836Z" fill="#F37721"/>
<path d="M291.104 77.9548C290.879 77.623 290.536 77.388 290.143 77.2974C289.509 77.1099 288.857 76.9871 288.197 76.9309C287.145 76.8346 286.089 76.7918 285.033 76.8029C283.779 76.8029 282.688 76.8436 281.839 76.9309C281.12 76.9881 280.408 77.1108 279.711 77.2974C279.247 77.41 278.815 77.6292 278.451 77.9374C278.174 78.1845 277.997 78.5238 277.953 78.8915L273.992 98.8996C273.466 101.358 272.636 103.742 271.518 105.997C270.522 108.039 269.272 109.949 267.797 111.682C266.551 113.162 265.07 114.432 263.413 115.44C262.094 116.282 260.568 116.752 259 116.801C258.34 116.821 257.682 116.7 257.072 116.447C256.552 116.217 256.104 115.851 255.777 115.388C255.419 114.873 255.167 114.294 255.033 113.683C254.875 112.949 254.798 112.2 254.804 111.449C254.805 110.656 254.848 109.864 254.933 109.075C255.015 108.277 255.147 107.484 255.326 106.701L260.858 78.9381C260.942 78.6059 260.896 78.2547 260.729 77.9548C260.494 77.6334 260.155 77.4015 259.768 77.2974C259.143 77.1068 258.498 76.9839 257.846 76.9309C256.792 76.8344 255.734 76.7917 254.675 76.8029C253.421 76.8029 252.331 76.8436 251.487 76.9309C250.768 76.9887 250.056 77.1113 249.36 77.2974C248.901 77.4055 248.476 77.6254 248.123 77.9374C247.857 78.1961 247.675 78.5286 247.602 78.8915L241.864 107.533C241.624 108.796 241.419 110.058 241.278 111.292C241.122 112.49 241.042 113.697 241.038 114.905C241.026 116.696 241.265 118.479 241.747 120.205C242.175 121.757 242.948 123.195 244.009 124.411C245.138 125.642 246.544 126.591 248.112 127.181C250.099 127.905 252.207 128.248 254.324 128.193C256.267 128.194 258.198 127.877 260.038 127.256C261.853 126.648 263.585 125.819 265.195 124.79C266.718 123.817 268.131 122.684 269.409 121.409C270.408 120.425 271.293 119.332 272.046 118.151L270.692 125.208C270.58 125.523 270.59 125.867 270.721 126.174C270.896 126.487 271.183 126.724 271.524 126.837C272.044 127.027 272.585 127.152 273.136 127.21C274.016 127.304 274.9 127.347 275.785 127.338C276.695 127.345 277.605 127.303 278.51 127.21C279.124 127.144 279.73 127.022 280.321 126.843C280.732 126.723 281.105 126.501 281.405 126.197C281.639 125.926 281.799 125.6 281.868 125.249L291.204 78.9439C291.296 78.6134 291.26 78.2608 291.104 77.9548V77.9548Z" fill="#F37721"/>
<path d="M326.738 78.848C325.826 78.4373 324.884 78.0956 323.921 77.8259C322.732 77.4962 321.521 77.2484 320.298 77.0841C318.915 76.8954 317.521 76.8017 316.125 76.8037C313.212 76.763 310.311 77.2031 307.541 78.1062C305.184 78.8927 303.002 80.1262 301.113 81.7392C299.37 83.2439 297.981 85.1146 297.045 87.2178C296.113 89.3401 295.637 91.6344 295.649 93.9522C295.58 95.8756 296.013 97.7837 296.905 99.4893C297.707 100.913 298.779 102.167 300.061 103.181C301.321 104.173 302.694 105.014 304.151 105.686C305.607 106.358 306.986 107.024 308.242 107.672C309.362 108.229 310.407 108.925 311.351 109.746C311.753 110.1 312.071 110.538 312.282 111.03C312.493 111.522 312.593 112.055 312.572 112.59C312.577 113.394 312.414 114.189 312.093 114.926C311.759 115.685 311.253 116.354 310.615 116.883C309.865 117.493 309.001 117.946 308.073 118.215C306.895 118.553 305.674 118.715 304.449 118.694C302.764 118.735 301.081 118.522 299.459 118.063C298.295 117.713 297.166 117.255 296.087 116.696C295.331 116.297 294.6 115.854 293.896 115.37C293.429 115.001 292.86 114.783 292.265 114.745C292.101 114.756 291.942 114.803 291.798 114.883C291.655 114.963 291.531 115.073 291.435 115.207C291.158 115.563 290.931 115.956 290.763 116.375C290.545 116.89 290.365 117.421 290.226 117.964C290.08 118.501 289.945 119.067 289.811 119.716C289.7 120.259 289.612 120.791 289.56 121.299C289.513 121.686 289.488 122.076 289.484 122.467C289.469 122.876 289.53 123.284 289.665 123.67C289.795 124.005 289.994 124.31 290.249 124.564C290.815 125.049 291.437 125.465 292.102 125.802C293.058 126.293 294.063 126.684 295.099 126.97C296.407 127.339 297.736 127.627 299.079 127.834C300.625 128.078 302.189 128.199 303.754 128.197C306.865 128.235 309.962 127.778 312.929 126.842C315.45 126.039 317.794 124.762 319.836 123.08C321.691 121.526 323.172 119.573 324.166 117.368C325.165 115.105 325.671 112.656 325.651 110.184C325.718 108.255 325.274 106.343 324.365 104.641C323.534 103.202 322.438 101.933 321.133 100.903C319.846 99.8834 318.439 99.0244 316.943 98.3445C315.366 97.6261 314.022 96.9836 312.765 96.382C311.615 95.8449 310.533 95.1745 309.539 94.3844C309.145 94.0788 308.825 93.6865 308.606 93.2378C308.387 92.7891 308.275 92.2961 308.277 91.797C308.273 91.0204 308.434 90.2517 308.75 89.5424C309.069 88.8371 309.543 88.2123 310.135 87.7143C310.807 87.1544 311.584 86.7353 312.42 86.4819C313.441 86.1637 314.507 86.0099 315.576 86.0263C316.919 86.0041 318.259 86.1572 319.561 86.4819C320.577 86.744 321.568 87.0918 322.524 87.5215C323.407 87.9304 324.114 88.2808 324.686 88.5846C325.169 88.8801 325.717 89.0507 326.282 89.081C326.72 89.081 327.112 88.7656 327.451 88.1465C327.822 87.4818 328.12 86.7787 328.339 86.0497C328.572 85.2527 328.752 84.441 328.876 83.6199C328.975 83.0189 329.033 82.4121 329.052 81.8034C329.084 81.4804 329.049 81.1541 328.949 80.8453C328.848 80.5366 328.684 80.2522 328.467 80.0103C327.966 79.5215 327.38 79.1277 326.738 78.848Z" fill="#F37721"/>
<path d="M383.861 78.7878C383.665 78.4814 383.368 78.2524 383.02 78.1403C382.488 77.9578 381.938 77.8364 381.378 77.7787C380.525 77.686 379.666 77.6432 378.807 77.6503C377.267 77.5889 375.726 77.744 374.23 78.1112C373.829 78.1943 373.459 78.3877 373.164 78.6694C372.868 78.951 372.659 79.3095 372.559 79.7037L371.771 83.5479C370.281 81.4854 368.345 79.7793 366.105 78.5545C363.76 77.3522 361.149 76.7506 358.509 76.8045C355.68 76.761 352.873 77.3096 350.273 78.4145C347.875 79.4664 345.685 80.9298 343.801 82.737C341.91 84.5713 340.29 86.6608 338.988 88.9438C337.655 91.2542 336.553 93.6887 335.699 96.2122C334.849 98.6826 334.21 101.219 333.787 103.796C333.407 106.11 333.21 108.451 333.199 110.796C333.205 112.993 333.452 115.184 333.934 117.329C334.357 119.31 335.155 121.192 336.288 122.877C337.408 124.511 338.92 125.844 340.688 126.756C342.827 127.776 345.182 128.269 347.554 128.191C349.531 128.191 351.494 127.862 353.361 127.217C355.162 126.599 356.884 125.774 358.492 124.761C359.967 123.832 361.32 122.723 362.516 121.459C363.369 120.58 364.11 119.6 364.722 118.542L363.351 125.239C363.27 125.57 363.299 125.918 363.434 126.231C363.618 126.549 363.92 126.783 364.275 126.884C364.807 127.062 365.358 127.175 365.917 127.223C366.587 127.287 367.464 127.322 368.517 127.322C370.057 127.383 371.598 127.228 373.094 126.861C373.496 126.778 373.865 126.584 374.161 126.303C374.456 126.021 374.666 125.663 374.765 125.268L383.961 79.7678C384.045 79.4397 384.01 79.0927 383.861 78.7878V78.7878ZM347.749 114.873C347.328 114.124 347.045 113.306 346.913 112.458C346.755 111.494 346.678 110.518 346.684 109.541C346.724 106.363 347.185 103.203 348.054 100.144C348.517 98.5444 349.107 96.9839 349.819 95.4772C350.469 94.0741 351.287 92.754 352.255 91.5455C353.127 90.4561 354.197 89.5381 355.409 88.8388C356.592 88.1771 357.928 87.8314 359.286 87.8354C361.057 87.8032 362.799 88.2836 364.299 89.2179C365.892 90.309 367.233 91.7226 368.235 93.3655L366.799 100.214C365.905 104.633 363.879 108.749 360.916 112.167C359.662 113.614 358.178 114.848 356.521 115.818C355.14 116.654 353.561 117.114 351.943 117.154C351.042 117.19 350.149 116.974 349.366 116.53C348.696 116.121 348.14 115.551 347.749 114.873Z" fill="#F37721"/>
<path d="M423.278 84.2392C423.484 83.6218 423.651 82.9923 423.778 82.3543C423.902 81.7144 424.002 81.1268 424.066 80.609C424.13 80.1656 424.165 79.7187 424.172 79.271C424.208 78.7264 424.096 78.1824 423.849 77.6944C423.625 77.2872 423.19 77.2057 422.56 77.2057H412.488L414.576 66.8097C414.657 66.4514 414.607 66.0763 414.435 65.7509C414.21 65.3937 413.87 65.1213 413.47 64.9772C412.839 64.7343 412.175 64.5853 411.499 64.5351C410.445 64.4353 409.387 64.3887 408.328 64.3954C407.034 64.3954 405.939 64.4362 405.075 64.5234C404.353 64.5818 403.64 64.7223 402.951 64.9423C402.483 65.0856 402.056 65.3345 401.703 65.6695C401.439 65.9887 401.261 66.369 401.186 66.7748L399.085 77.2057H393.519C393.181 77.1911 392.844 77.2664 392.545 77.424C392.246 77.5816 391.996 77.8156 391.819 78.1017C391.322 78.8134 390.942 79.5989 390.695 80.4287C390.419 81.3413 390.222 82.2755 390.107 83.2211C389.999 83.9925 389.938 84.7696 389.925 85.5482C389.876 86.2063 389.987 86.8664 390.248 87.4738C390.362 87.6599 390.519 87.8165 390.706 87.9308C390.894 88.0451 391.106 88.1138 391.325 88.1312H396.908L392.349 110.506C392.243 110.954 392.148 111.378 392.054 111.954C391.96 112.53 391.878 113.048 391.79 113.601C391.701 114.153 391.643 114.648 391.607 115.177C391.572 115.706 391.554 116.079 391.554 116.498C391.511 118.312 391.79 120.119 392.378 121.838C392.877 123.234 393.728 124.481 394.849 125.463C396.03 126.447 397.419 127.157 398.915 127.539C400.738 128.002 402.616 128.223 404.498 128.197C405.482 128.195 406.464 128.133 407.44 128.011C408.375 127.9 409.302 127.733 410.217 127.51C410.991 127.335 411.747 127.09 412.476 126.777C413.009 126.565 413.499 126.26 413.923 125.876C414.315 125.447 414.626 124.953 414.841 124.415C415.139 123.716 415.395 122.999 415.606 122.269C415.84 121.47 416.027 120.658 416.165 119.837C416.292 119.093 416.36 118.34 416.371 117.586C416.41 117.121 416.303 116.656 416.065 116.253C415.98 116.124 415.864 116.018 415.727 115.944C415.591 115.87 415.438 115.83 415.282 115.829C414.966 115.834 414.652 115.897 414.359 116.015C414.041 116.137 413.67 116.277 413.223 116.434C412.041 116.846 410.793 117.043 409.54 117.015C408.128 117.015 407.087 116.701 406.44 116.073C405.792 115.445 405.463 114.45 405.463 113.089C405.472 112.505 405.516 111.922 405.592 111.343C405.681 110.651 405.775 110.22 405.886 109.691L410.293 88.1137H420.495C420.907 88.1137 421.289 87.7472 421.637 87.404C422.008 86.9956 422.315 86.5348 422.549 86.0368C422.834 85.4551 423.077 84.8544 423.278 84.2392V84.2392Z" fill="#0A73B7"/>
<path d="M460.062 89.5186C460.436 88.9315 460.735 88.2991 460.95 87.6365C461.202 86.8919 461.429 86.0886 461.651 85.1681C461.873 84.2475 462.025 83.4091 462.166 82.6C462.317 81.656 462.417 80.9875 462.475 80.4188C462.534 79.8501 462.574 79.3751 462.574 79.1172C462.59 78.9284 462.568 78.7385 462.51 78.5583C462.452 78.3781 462.359 78.2113 462.236 78.0676C461.972 77.857 461.679 77.6871 461.365 77.5634C460.962 77.3936 460.543 77.262 460.115 77.1705C459.671 77.0709 459.163 76.9829 458.613 76.9067C458.087 76.8379 457.556 76.8026 457.024 76.8011C455.684 76.8113 454.357 77.078 453.116 77.5868C451.759 78.1387 450.479 78.8639 449.307 79.7445C448.04 80.7022 446.878 81.7931 445.842 82.9987C444.854 84.1297 443.976 85.3529 443.219 86.6515L444.563 79.8032C444.637 79.4819 444.608 79.1457 444.481 78.8416C444.312 78.5253 444.027 78.2876 443.687 78.179C443.173 77.9871 442.637 77.8629 442.092 77.8096C441.223 77.7125 440.349 77.6695 439.474 77.6806C438.583 77.6722 437.691 77.7153 436.805 77.8096C436.187 77.8714 435.576 77.9931 434.982 78.1732C434.572 78.2993 434.198 78.5202 433.889 78.8181C433.645 79.0846 433.477 79.413 433.404 79.768L424.215 126.024C424.141 126.348 424.182 126.688 424.332 126.985C424.553 127.322 424.89 127.566 425.278 127.671C425.903 127.88 426.55 128.014 427.206 128.07C428.006 128.152 429.034 128.199 430.337 128.199C431.64 128.199 432.674 128.152 433.498 128.07C434.212 128.008 434.918 127.876 435.607 127.677C436.057 127.548 436.472 127.32 436.822 127.009C437.088 126.75 437.269 126.417 437.342 126.053L441.472 105.285C441.877 103.166 442.559 101.11 443.5 99.1696C444.368 97.3453 445.447 95.6294 446.713 94.0568C447.798 92.7103 449.069 91.5258 450.487 90.5389C451.559 89.7359 452.844 89.2706 454.179 89.202C454.695 89.1953 455.21 89.2564 455.71 89.3838C456.154 89.5011 456.569 89.6242 456.948 89.7473C457.328 89.8704 457.679 89.9877 457.971 90.105C458.278 90.2275 458.605 90.2911 458.935 90.2926C459.172 90.2676 459.399 90.1838 459.596 90.0487C459.793 89.9136 459.953 89.7314 460.062 89.5186V89.5186Z" fill="#0A73B7"/>
<path d="M482.511 78.1283C482.288 77.7838 481.953 77.5295 481.564 77.41C480.941 77.1752 480.291 77.0221 479.63 76.9544C478.589 76.8424 477.543 76.7917 476.496 76.8026C475.432 76.7929 474.368 76.8436 473.309 76.9544C472.598 77.0279 471.898 77.1807 471.22 77.41C470.769 77.5498 470.353 77.7869 470.002 78.105C469.74 78.3655 469.562 78.699 469.488 79.0628L460.252 126.001C460.178 126.33 460.219 126.675 460.368 126.977C460.591 127.315 460.927 127.559 461.314 127.666C461.941 127.876 462.59 128.01 463.248 128.063C464.29 128.163 465.336 128.208 466.383 128.197C467.641 128.197 468.692 128.151 469.546 128.063C470.26 128.009 470.967 127.876 471.653 127.666C472.107 127.542 472.526 127.312 472.877 126.994C473.14 126.735 473.32 126.401 473.39 126.036L482.626 79.0978C482.706 78.7712 482.665 78.4264 482.511 78.1283V78.1283Z" fill="#0A73B7"/>
<path d="M472.739 69.6082C473.227 70.1186 473.861 70.4666 474.556 70.6042C475.565 70.8159 476.594 70.9119 477.625 70.8904C478.706 70.9085 479.787 70.8126 480.849 70.6042C481.65 70.4395 482.404 70.1014 483.058 69.6139C483.683 69.1263 484.179 68.4959 484.505 67.7764C484.909 66.8891 485.196 65.9542 485.359 64.9944C485.56 64.1064 485.646 63.1964 485.613 62.2868C485.598 61.611 485.359 60.9589 484.932 60.4321C484.448 59.9056 483.811 59.5415 483.11 59.3903C482.104 59.161 481.073 59.0571 480.041 59.0812C478.958 59.0614 477.876 59.1651 476.817 59.3903C476.012 59.5696 475.256 59.9212 474.602 60.4207C473.988 60.9173 473.495 61.5455 473.16 62.2582C472.764 63.1244 472.478 64.0357 472.307 64.9715C472.09 65.8843 472 66.8223 472.041 67.7592C472.061 68.4354 472.306 69.0859 472.739 69.6082V69.6082Z" fill="#0A73B7"/>
<path d="M529.804 87.3808C529.368 85.4055 528.552 83.5338 527.402 81.8694C526.284 80.2915 524.789 79.0178 523.053 78.164C520.986 77.2024 518.722 76.7381 516.442 76.808C514.488 76.8042 512.547 77.1322 510.703 77.7782C508.91 78.394 507.199 79.2241 505.606 80.2505C504.143 81.1788 502.805 82.2905 501.625 83.5585C500.792 84.4415 500.07 85.4228 499.474 86.4808L500.778 79.7245C500.857 79.4078 500.817 79.0731 500.667 78.7835C500.479 78.4749 500.186 78.2445 499.842 78.1347C499.324 77.952 498.787 77.8304 498.241 77.7724C497.387 77.6782 496.528 77.6352 495.669 77.6438C494.139 77.5792 492.607 77.7347 491.122 78.1055C490.731 78.1986 490.374 78.399 490.091 78.684C489.808 78.969 489.61 79.3273 489.52 79.7186L476.795 143.05C476.72 143.375 476.759 143.716 476.906 144.015C477.12 144.359 477.45 144.616 477.836 144.739C478.441 144.959 479.071 145.105 479.712 145.172C480.727 145.289 481.748 145.342 482.769 145.33C483.825 145.34 484.881 145.287 485.931 145.172C486.634 145.102 487.328 144.957 488 144.739C488.452 144.601 488.864 144.359 489.204 144.032C489.458 143.768 489.633 143.438 489.707 143.08L493.682 122.781C494.298 123.504 494.979 124.169 495.716 124.769C496.559 125.454 497.476 126.042 498.451 126.522C499.5 127.037 500.604 127.429 501.742 127.691C502.999 127.97 504.283 128.107 505.571 128.1C508.345 128.139 511.098 127.602 513.654 126.522C516.009 125.492 518.167 124.06 520.031 122.29C521.905 120.483 523.508 118.414 524.789 116.148C526.106 113.843 527.196 111.416 528.045 108.901C528.885 106.425 529.517 103.884 529.933 101.303C530.315 98.9488 530.511 96.5685 530.517 94.1839C530.538 91.8965 530.299 89.6142 529.804 87.3808V87.3808ZM517.22 95.2768C517.212 96.8272 517.102 98.3754 516.892 99.9116C516.668 101.562 516.33 103.194 515.881 104.798C515.425 106.401 514.838 107.965 514.128 109.473C513.483 110.875 512.668 112.192 511.702 113.395C510.828 114.471 509.769 115.384 508.575 116.089C507.423 116.756 506.113 117.104 504.781 117.095C503.03 117.129 501.307 116.649 499.825 115.715C498.248 114.628 496.921 113.217 495.932 111.577L497.347 104.704C497.772 102.423 498.521 100.215 499.574 98.1465C500.545 96.2159 501.752 94.4136 503.168 92.7812C504.406 91.3461 505.864 90.117 507.488 89.1401C508.869 88.2954 510.451 87.8353 512.07 87.8075C512.891 87.7852 513.706 87.9553 514.449 88.3043C515.102 88.6434 515.651 89.1522 516.039 89.7771C516.487 90.5065 516.794 91.3133 516.945 92.1559C517.133 93.1854 517.225 94.2303 517.22 95.2768V95.2768Z" fill="#0A73B7"/>
<path d="M37.2452 117.776C42.4141 113.475 42.1636 111.692 57.2098 111.092C72.6232 110.451 99.6623 120.52 102.739 121.954C104.173 119.291 135.955 101.861 142.727 97.9568C149.172 94.2448 161.549 82.7357 163.42 73.3536C163.524 73.2079 163.635 73.0681 163.734 72.9282C156.431 57.6838 143.717 45.7017 128.067 39.3136C112.417 32.9255 94.9504 32.5883 79.0655 38.3677C63.1806 44.147 50.0141 55.6295 42.1279 70.5807C34.2417 85.532 32.2001 102.882 36.4003 119.256C36.6509 118.784 36.9481 118.277 37.2452 117.776Z" fill="#0A73B7"/>
<path d="M36.9072 118.061C36.9072 118.061 37.5249 100.632 57.8275 97.9568C78.1301 95.282 74.8434 96.937 74.8434 96.937C74.8434 96.937 82.2325 83.6098 94.3302 82.9921C106.428 82.3744 108.275 82.7881 109.481 81.7625C110.688 80.7369 110.915 79.0994 109.481 78.068C113.38 77.0482 114.609 79.9211 114.609 81.9665C118.106 81.5586 126.707 79.5073 126.707 75.2009C126.707 70.8945 125.07 72.124 125.07 72.124C125.07 72.124 131.835 73.7674 131.835 77.4619C131.835 81.1565 127.121 82.9921 127.121 82.9921C127.121 82.9921 137.575 84.6354 142.907 84.0177C148.239 83.4 163.029 76.9316 163.641 71.99C162.825 81.5877 149.492 94.0991 142.727 97.9859C135.961 101.873 104.173 119.32 102.739 121.983C99.6622 120.52 72.6232 110.451 57.2098 111.092C41.7964 111.733 42.4491 113.545 36.9072 118.061ZM93.7183 88.3067C91.9325 88.3055 90.1865 88.8341 88.7012 89.8255C87.2159 90.8169 86.058 92.2266 85.3741 93.8762C84.6902 95.5259 84.5109 97.3413 84.859 99.0928C85.2071 100.844 86.067 102.453 87.3297 103.716C88.5924 104.979 90.2014 105.839 91.9529 106.187C93.7044 106.535 95.5199 106.356 97.1695 105.672C98.8191 104.988 100.229 103.83 101.22 102.345C102.212 100.859 102.74 99.1132 102.739 97.3274C102.739 94.935 101.789 92.6405 100.097 90.9488C98.4052 89.2571 96.1108 88.3067 93.7183 88.3067V88.3067Z" fill="white"/>
<path d="M93.922 94.9091C93.9232 95.6806 93.6954 96.4352 93.2674 97.0772C92.8395 97.7192 92.2307 98.2197 91.5181 98.5155C90.8055 98.8113 90.0212 98.889 89.2644 98.7388C88.5076 98.5885 87.8124 98.2171 87.2668 97.6716C86.7213 97.126 86.3499 96.4308 86.1996 95.674C86.0494 94.9173 86.1271 94.1329 86.4229 93.4203C86.7187 92.7077 87.2193 92.0989 87.8612 91.671C88.5032 91.243 89.2578 91.0152 90.0293 91.0164C91.0613 91.0179 92.0505 91.4286 92.7802 92.1582C93.5099 92.8879 93.9205 93.8771 93.922 94.9091V94.9091Z" fill="white"/>
<path d="M120.99 168.142C120.46 162.862 120.407 142.886 145.325 121.913C162.947 107.106 167.714 94.6177 168.775 87.0538C168.489 85.8475 168.192 84.6587 167.825 83.4758C166.432 89.0817 163.349 95.7599 158.408 102.252C152.161 110.457 130.436 126.563 120.314 140.671C112.82 151.161 109.569 166.364 108.98 170.391C113.043 170.005 117.063 169.252 120.99 168.142V168.142Z" fill="white"/>
<path d="M165.278 114.069C167.835 109.874 169.612 105.25 170.523 100.422C170.45 98.059 170.256 95.7016 169.94 93.359C167.225 107.718 154.678 120.165 146.136 132.758C137.837 144.995 134.929 159.15 134.533 162.711C137.747 160.984 140.818 159.004 143.717 156.79C144.3 142.303 156.654 128.265 165.278 114.069Z" fill="white"/>
<path d="M166.036 78.2894C165.861 77.8407 165.698 77.392 165.511 76.9491C158.868 99.67 124.562 116.039 105.536 130.264C87.4711 143.783 82.2673 164.033 81.5039 167.407C85.9967 168.86 90.6297 169.836 95.3264 170.321C99.021 147.449 109.353 135.316 138.635 114.064C160.063 98.5104 164.964 84.7753 166.036 78.2894Z" fill="white"/>
<path d="M105.536 130.264C124.563 116.045 158.857 99.6759 165.512 76.9549C164.958 75.5972 164.375 74.251 163.763 72.9341C163.664 73.0739 163.554 73.2138 163.449 73.3594C161.578 82.7415 149.201 94.2506 142.756 97.9626C135.99 101.867 104.202 119.297 102.768 121.96C99.6624 120.52 72.6234 110.451 57.2099 111.092C42.1637 111.674 42.4142 113.475 37.2454 117.776C36.9482 118.277 36.6626 118.784 36.4004 119.256C39.2398 130.437 44.8656 140.717 52.7528 149.137C60.64 157.556 70.5315 163.839 81.5043 167.402C82.2677 164.028 87.454 143.777 105.536 130.264Z" fill="#F37721"/>
<path d="M146.13 132.758C154.673 120.147 167.219 107.7 169.934 93.359C169.637 91.2262 169.27 89.1167 168.769 87.0538C167.708 94.6294 162.942 107.106 145.29 121.936C120.361 142.909 120.408 162.897 120.99 168.142C125.695 166.814 130.243 164.986 134.556 162.687C134.924 159.15 137.831 144.995 146.13 132.758Z" fill="#F37721"/>
<path d="M165.279 114.069C156.66 128.265 144.3 142.303 143.717 156.79C152.07 150.439 158.841 142.243 163.502 132.841C168.162 123.44 170.585 113.088 170.581 102.595C170.581 101.873 170.547 101.162 170.523 100.445C169.61 105.265 167.833 109.881 165.279 114.069V114.069Z" fill="#F37721"/>
<path d="M120.315 140.671C130.419 126.563 152.161 110.457 158.408 102.252C163.35 95.7599 166.432 89.0817 167.825 83.4758C167.307 81.7276 166.695 79.9793 166.036 78.2894C164.964 84.7753 160.063 98.5104 138.647 114.069C109.336 135.322 99.0213 147.455 95.3501 170.327C97.7073 170.587 100.076 170.723 102.448 170.735C104.662 170.735 106.848 170.624 109.004 170.414C109.569 166.393 112.832 151.137 120.315 140.671Z" fill="#F37721"/>
</svg>
