<svg id="Layer_1" data-name="Layer 1" xmlns="http://www.w3.org/2000/svg" viewBox="0 0 520 160"><defs><style>.cls-1{fill:#f37721;}.cls-2{fill:#0a73b7;}.cls-3{fill:#fff;}</style></defs><path class="cls-1" d="M214,58.87A10.38,10.38,0,0,0,210.1,56a15.17,15.17,0,0,0-6-1,17.24,17.24,0,0,0-5.7.93,24.35,24.35,0,0,0-5,2.44,22.53,22.53,0,0,0-6.72,6.54l1.39-7A1.56,1.56,0,0,0,188,57a1.41,1.41,0,0,0-.78-.64,6.07,6.07,0,0,0-1.57-.36,20,20,0,0,0-2.57-.13,23,23,0,0,0-2.63.13,9,9,0,0,0-1.79.36,2.3,2.3,0,0,0-1,.62,2,2,0,0,0-.45.92l-9.09,45a1.37,1.37,0,0,0,.12.93,1.62,1.62,0,0,0,.93.67,7.2,7.2,0,0,0,1.9.38,28.73,28.73,0,0,0,3.08.13,29.69,29.69,0,0,0,3.1-.13,9.8,9.8,0,0,0,2.07-.38,2.93,2.93,0,0,0,1.2-.65,1.83,1.83,0,0,0,.51-.92l4.11-20.37a23.1,23.1,0,0,1,2.22-6.34A25.53,25.53,0,0,1,190.85,71a17.38,17.38,0,0,1,4.24-3.54,8.59,8.59,0,0,1,4.3-1.3,3.53,3.53,0,0,1,3.17,1.42,6.64,6.64,0,0,1,.95,3.69,20.46,20.46,0,0,1-.12,2.21,24.53,24.53,0,0,1-.36,2.43l-5.48,27a1.24,1.24,0,0,0,.14.94,1.78,1.78,0,0,0,.93.66,7,7,0,0,0,1.87.38,28.84,28.84,0,0,0,3.08.13,29.78,29.78,0,0,0,3.13-.13,10.26,10.26,0,0,0,2.05-.37,3.15,3.15,0,0,0,1.2-.66,1.81,1.81,0,0,0,.5-.92l5.63-27.72c.24-1.24.43-2.47.57-3.63a27.93,27.93,0,0,0,.23-3.54,18.23,18.23,0,0,0-.67-5A10.74,10.74,0,0,0,214,58.87Z"/><path class="cls-1" d="M268.48,56.11a1.56,1.56,0,0,0-.94-.64,9.26,9.26,0,0,0-1.89-.35,28.73,28.73,0,0,0-3.08-.13,30.17,30.17,0,0,0-3.11.13,11.2,11.2,0,0,0-2.07.35,3.07,3.07,0,0,0-1.23.63,1.51,1.51,0,0,0-.48.92L251.83,76.5a29.59,29.59,0,0,1-2.41,6.9,26.69,26.69,0,0,1-3.62,5.54,17.55,17.55,0,0,1-4.27,3.65,8.49,8.49,0,0,1-4.29,1.33,4.46,4.46,0,0,1-1.88-.35,3,3,0,0,1-1.26-1,4.58,4.58,0,0,1-.73-1.66,10.51,10.51,0,0,1-.22-2.17,21.8,21.8,0,0,1,.51-4.62l5.38-27a1.29,1.29,0,0,0-.12-1,1.72,1.72,0,0,0-.94-.64,9.08,9.08,0,0,0-1.87-.35A28.73,28.73,0,0,0,233,55a30,30,0,0,0-3.11.13,11.2,11.2,0,0,0-2.07.35,2.78,2.78,0,0,0-1.2.63,1.76,1.76,0,0,0-.51.92L220.56,84.9c-.24,1.23-.43,2.46-.57,3.66a29.42,29.42,0,0,0-.24,3.51,19.1,19.1,0,0,0,.69,5.16,10.39,10.39,0,0,0,2.21,4.09,10.21,10.21,0,0,0,4,2.7,16.33,16.33,0,0,0,6,1,17,17,0,0,0,5.57-.91,22.64,22.64,0,0,0,5-2.4,24.12,24.12,0,0,0,4.11-3.29,18.14,18.14,0,0,0,2.56-3.17l-1.32,6.87a1.27,1.27,0,0,0,0,.94,1.41,1.41,0,0,0,.78.64,6.64,6.64,0,0,0,1.57.37,22.28,22.28,0,0,0,2.58.12,23.39,23.39,0,0,0,2.65-.12,10.36,10.36,0,0,0,1.76-.36,2.44,2.44,0,0,0,1.06-.63,2,2,0,0,0,.45-.92l9.09-45.06a1.36,1.36,0,0,0-.1-1Z"/><path class="cls-1" d="M303.16,57a19.5,19.5,0,0,0-2.74-1,25.1,25.1,0,0,0-3.53-.72,29.06,29.06,0,0,0-4.06-.28,25.69,25.69,0,0,0-8.35,1.27,18.86,18.86,0,0,0-6.26,3.54,15.09,15.09,0,0,0-4,5.33,16.06,16.06,0,0,0-1.36,6.55,10.86,10.86,0,0,0,1.22,5.39,12.08,12.08,0,0,0,3.08,3.59,19.32,19.32,0,0,0,4,2.44c1.41.65,2.76,1.3,4,1.93a14.61,14.61,0,0,1,3,2,3.49,3.49,0,0,1,1.19,2.77,5.52,5.52,0,0,1-.46,2.27A5.31,5.31,0,0,1,287.47,94,7,7,0,0,1,285,95.29a12,12,0,0,1-3.52.47,16.62,16.62,0,0,1-4.86-.61,19.43,19.43,0,0,1-3.28-1.33,20.79,20.79,0,0,1-2.13-1.29,2.82,2.82,0,0,0-1.59-.61,1.06,1.06,0,0,0-.46.13,1.19,1.19,0,0,0-.35.32,4.55,4.55,0,0,0-.65,1.13,10.49,10.49,0,0,0-.53,1.55c-.14.52-.27,1.07-.4,1.7A15,15,0,0,0,267,98.3a10.54,10.54,0,0,0-.08,1.13,3.29,3.29,0,0,0,.18,1.17,2.31,2.31,0,0,0,.57.87,9.15,9.15,0,0,0,1.8,1.21,14.58,14.58,0,0,0,2.92,1.13,33.77,33.77,0,0,0,3.87.85,30.11,30.11,0,0,0,4.55.35,28.47,28.47,0,0,0,8.93-1.32,20.2,20.2,0,0,0,6.72-3.66,15.44,15.44,0,0,0,4.21-5.56,16.85,16.85,0,0,0,1.45-7,10.68,10.68,0,0,0-1.25-5.4,12.75,12.75,0,0,0-3.15-3.63A19.31,19.31,0,0,0,293.63,76c-1.54-.7-2.85-1.33-4.07-1.91a16.14,16.14,0,0,1-3.14-2,3.14,3.14,0,0,1-1.23-2.52,5.35,5.35,0,0,1,.46-2.19A5,5,0,0,1,287,65.61a6.47,6.47,0,0,1,2.22-1.2A9.73,9.73,0,0,1,292.3,64a15.28,15.28,0,0,1,3.87.44,18.32,18.32,0,0,1,2.89,1c.86.4,1.54.74,2.1,1a3.39,3.39,0,0,0,1.55.48c.43,0,.81-.31,1.14-.91a10.79,10.79,0,0,0,.87-2,19.52,19.52,0,0,0,.52-2.36,15.14,15.14,0,0,0,.17-1.77,2.24,2.24,0,0,0-.1-.93,2.4,2.4,0,0,0-.47-.82A5.77,5.77,0,0,0,303.16,57Z"/><path class="cls-1" d="M358.75,56.92a1.52,1.52,0,0,0-.82-.63,7.87,7.87,0,0,0-1.6-.35,20.82,20.82,0,0,0-2.5-.12,16.22,16.22,0,0,0-4.45.44,2.19,2.19,0,0,0-1,.55,2.09,2.09,0,0,0-.59,1L347,61.56a16.6,16.6,0,0,0-5.51-4.86A15.53,15.53,0,0,0,334.08,55a19.69,19.69,0,0,0-8,1.57,21.73,21.73,0,0,0-6.3,4.21,27.16,27.16,0,0,0-4.68,6,39.09,39.09,0,0,0-3.2,7.07A44.55,44.55,0,0,0,310,81.26a43.16,43.16,0,0,0-.57,6.81,29,29,0,0,0,.71,6.36,15.46,15.46,0,0,0,2.29,5.4,11.72,11.72,0,0,0,4.28,3.78,14.45,14.45,0,0,0,6.69,1.39,17.27,17.27,0,0,0,5.65-1,23.6,23.6,0,0,0,5-2.39A20.15,20.15,0,0,0,338,98.45a14.11,14.11,0,0,0,2.14-2.84l-1.33,6.52a1.54,1.54,0,0,0,.08,1,1.41,1.41,0,0,0,.82.63,7.22,7.22,0,0,0,1.6.33c.65.06,1.5.1,2.53.1a15.85,15.85,0,0,0,4.45-.45,2.11,2.11,0,0,0,1.63-1.55l9-44.28a1.39,1.39,0,0,0-.1-1ZM323.61,92a7,7,0,0,1-.82-2.35,16.9,16.9,0,0,1-.22-2.84,35.3,35.3,0,0,1,1.33-9.14,30.28,30.28,0,0,1,1.72-4.54A18.67,18.67,0,0,1,328,69.34a11.12,11.12,0,0,1,3.07-2.64,7.64,7.64,0,0,1,3.77-1,8.91,8.91,0,0,1,4.88,1.34,13.3,13.3,0,0,1,3.83,4l-1.39,6.67a25.52,25.52,0,0,1-5.73,11.63A16.82,16.82,0,0,1,332.14,93a9.07,9.07,0,0,1-4.45,1.3,4.59,4.59,0,0,1-2.51-.61A4.49,4.49,0,0,1,323.61,92Z"/><path class="cls-2" d="M397.11,62.23a16.62,16.62,0,0,0,.49-1.84c.12-.62.22-1.19.28-1.69a11.55,11.55,0,0,0,.1-1.31,2.89,2.89,0,0,0-.31-1.53c-.22-.4-.64-.48-1.26-.48h-9.8l2-10.11a1.47,1.47,0,0,0-.14-1,1.79,1.79,0,0,0-.93-.76,7,7,0,0,0-1.92-.43c-1-.09-2.06-.14-3.09-.13-1.26,0-2.32,0-3.16.12a9,9,0,0,0-2.07.41,3.07,3.07,0,0,0-1.22.71,2.4,2.4,0,0,0-.5,1.07l-2,10.15h-5.42a1.85,1.85,0,0,0-.95.22,1.87,1.87,0,0,0-.71.66,7.87,7.87,0,0,0-1.09,2.26,15.85,15.85,0,0,0-.57,2.72,17.07,17.07,0,0,0-.18,2.26,3.92,3.92,0,0,0,.32,1.88,1.32,1.32,0,0,0,.44.44,1.42,1.42,0,0,0,.6.2h5.44L367,87.79c-.1.44-.19.85-.29,1.41s-.17,1.07-.25,1.6a14,14,0,0,0-.18,1.54c0,.51-.05.88-.05,1.28a15,15,0,0,0,.8,5.2,8.46,8.46,0,0,0,2.4,3.53,10,10,0,0,0,4,2,21.12,21.12,0,0,0,5.43.64,22.92,22.92,0,0,0,2.87-.18,22.47,22.47,0,0,0,2.7-.49,13.12,13.12,0,0,0,2.2-.71,4.92,4.92,0,0,0,1.41-.88,4.79,4.79,0,0,0,.89-1.42,17.29,17.29,0,0,0,.74-2.09,21.42,21.42,0,0,0,.55-2.37,14.5,14.5,0,0,0,.2-2.19,2.21,2.21,0,0,0-.3-1.3,1,1,0,0,0-.33-.3.92.92,0,0,0-.43-.11,2.77,2.77,0,0,0-.9.18c-.31.12-.67.26-1.1.41a10.42,10.42,0,0,1-3.59.57,4.25,4.25,0,0,1-3-.92,3.89,3.89,0,0,1-1-2.9,13.75,13.75,0,0,1,.13-1.7c.09-.68.18-1.1.28-1.61l4.29-21h9.93a1.85,1.85,0,0,0,1.11-.69A5.63,5.63,0,0,0,396.4,64a12.57,12.57,0,0,0,.71-1.75Z"/><path class="cls-2" d="M432.91,67.37a8.13,8.13,0,0,0,.86-1.84c.25-.72.47-1.5.69-2.4s.36-1.71.5-2.5.24-1.57.3-2.12.09-1,.09-1.27a1.25,1.25,0,0,0-.06-.54,1.27,1.27,0,0,0-.27-.48,3.36,3.36,0,0,0-.84-.49,7.2,7.2,0,0,0-1.22-.38c-.43-.1-.93-.18-1.46-.26A13.3,13.3,0,0,0,430,55a10.34,10.34,0,0,0-3.8.76,17,17,0,0,0-3.71,2.1,23.2,23.2,0,0,0-5.92,6.73l1.31-6.67a1.56,1.56,0,0,0-.08-.93,1.39,1.39,0,0,0-.78-.65,5.92,5.92,0,0,0-1.55-.36,19.71,19.71,0,0,0-2.55-.12,22.45,22.45,0,0,0-2.59.12,8.92,8.92,0,0,0-1.78.36,2.59,2.59,0,0,0-1.06.62,1.92,1.92,0,0,0-.47.93l-9,45a1.39,1.39,0,0,0,.12.94,1.61,1.61,0,0,0,.92.67,8.07,8.07,0,0,0,1.87.38A30.4,30.4,0,0,0,404,105c1.27,0,2.28-.05,3.08-.13a10.28,10.28,0,0,0,2.05-.38,3,3,0,0,0,1.18-.65,1.75,1.75,0,0,0,.51-.93l4-20.21a24,24,0,0,1,2-5.95,25.44,25.44,0,0,1,3.13-5,17.53,17.53,0,0,1,3.67-3.42,6.57,6.57,0,0,1,3.59-1.3,5.29,5.29,0,0,1,1.49.18c.44.11.84.23,1.21.35s.71.23,1,.35a2.53,2.53,0,0,0,.94.18,1.43,1.43,0,0,0,.65-.24,1.47,1.47,0,0,0,.45-.51Z"/><path class="cls-2" d="M454.76,56.28a1.78,1.78,0,0,0-.92-.7,7.22,7.22,0,0,0-1.89-.44A25.85,25.85,0,0,0,448.9,55a26.81,26.81,0,0,0-3.1.15,9.43,9.43,0,0,0-2,.44,3.21,3.21,0,0,0-1.19.68,1.84,1.84,0,0,0-.5.93l-9,45.68a1.42,1.42,0,0,0,.12.95,1.56,1.56,0,0,0,.92.67,7.58,7.58,0,0,0,1.88.39,28.18,28.18,0,0,0,3.05.13c1.23,0,2.25-.05,3.08-.13a9.05,9.05,0,0,0,2.05-.39,2.89,2.89,0,0,0,1.19-.65,1.77,1.77,0,0,0,.5-.93l9-45.69a1.34,1.34,0,0,0-.11-.94Z"/><path class="cls-2" d="M445.25,48A3.35,3.35,0,0,0,447,49a13.71,13.71,0,0,0,3,.28,15.74,15.74,0,0,0,3.14-.28,5.5,5.5,0,0,0,2.15-1,4.82,4.82,0,0,0,1.41-1.79,11.32,11.32,0,0,0,.83-2.71,10.61,10.61,0,0,0,.25-2.64,3,3,0,0,0-.67-1.8,3.33,3.33,0,0,0-1.77-1,12,12,0,0,0-3-.31,14.33,14.33,0,0,0-3.13.31,5.41,5.41,0,0,0-2.16,1,4.9,4.9,0,0,0-1.4,1.79,10.66,10.66,0,0,0-.83,2.64,9.52,9.52,0,0,0-.26,2.71,3,3,0,0,0,.68,1.8Z"/><path class="cls-2" d="M500.78,65.29a15.08,15.08,0,0,0-2.34-5.37,11.25,11.25,0,0,0-4.23-3.6A14.12,14.12,0,0,0,487.78,55a16.66,16.66,0,0,0-5.59.94,23,23,0,0,0-5,2.41,19.55,19.55,0,0,0-3.87,3.22,14.54,14.54,0,0,0-2.09,2.84l1.26-6.58a1.31,1.31,0,0,0-.1-.91,1.45,1.45,0,0,0-.81-.63,6.85,6.85,0,0,0-1.55-.36,21.09,21.09,0,0,0-2.51-.12,15.64,15.64,0,0,0-4.42.45,2.11,2.11,0,0,0-1,.56,2.18,2.18,0,0,0-.55,1l-12.39,61.63a1.45,1.45,0,0,0,.11.94,1.65,1.65,0,0,0,.91.71,8.15,8.15,0,0,0,1.82.42,24.68,24.68,0,0,0,3,.15,26.47,26.47,0,0,0,3.08-.15,10,10,0,0,0,2-.42,3,3,0,0,0,1.17-.69,1.87,1.87,0,0,0,.49-.93l3.87-19.75a15,15,0,0,0,2,1.93,14,14,0,0,0,2.66,1.71,15.06,15.06,0,0,0,3.2,1.14,16.76,16.76,0,0,0,3.73.39,19.51,19.51,0,0,0,7.87-1.53,21.51,21.51,0,0,0,6.2-4.12,25.83,25.83,0,0,0,4.63-6,40.2,40.2,0,0,0,3.17-7,45.89,45.89,0,0,0,1.84-7.39,44.78,44.78,0,0,0,.57-6.93,29.43,29.43,0,0,0-.7-6.62ZM488.54,73a35.72,35.72,0,0,1-.32,4.51,35,35,0,0,1-1,4.76,29.65,29.65,0,0,1-1.7,4.55,18.48,18.48,0,0,1-2.36,3.81,11.41,11.41,0,0,1-3.05,2.62,7.23,7.23,0,0,1-3.69,1,8.65,8.65,0,0,1-4.82-1.34,13,13,0,0,1-3.79-4l1.38-6.69a23.68,23.68,0,0,1,2.16-6.38,25.48,25.48,0,0,1,3.5-5.22,17.19,17.19,0,0,1,4.2-3.54,8.93,8.93,0,0,1,4.46-1.3,5.14,5.14,0,0,1,2.32.48,4,4,0,0,1,1.55,1.44,6.83,6.83,0,0,1,.88,2.31,17.18,17.18,0,0,1,.27,3Z"/><path class="cls-2" d="M21.42,94.87c5-4.19,4.79-5.92,19.43-6.51,15-.62,41.32,9.18,44.31,10.57,1.4-2.59,32.33-19.55,38.92-23.35,6.27-3.61,18.32-14.81,20.14-23.95.1-.14.21-.27.3-.41A66.25,66.25,0,0,0,20.6,96.31C20.84,95.85,21.13,95.35,21.42,94.87Z"/><path class="cls-3" d="M21.09,95.14s.6-17,20.36-19.56,16.56-1,16.56-1S65.2,61.62,77,61s13.57-.19,14.74-1.19a2.16,2.16,0,0,0,0-3.6c3.8-1,5,1.81,5,3.8,3.41-.4,11.78-2.4,11.78-6.59s-1.6-3-1.6-3,6.59,1.6,6.59,5.19S108.89,61,108.89,61s10.17,1.6,15.36,1,19.59-6.89,20.18-11.7c-.79,9.34-13.77,21.51-20.35,25.3S86.56,96.37,85.16,99c-3-1.42-29.31-11.22-44.31-10.6S26.49,90.75,21.09,95.14ZM76.38,66.19a8.77,8.77,0,1,0,6.21,2.57,8.75,8.75,0,0,0-6.21-2.57Z"/><path class="cls-3" d="M76.58,72.61a3.8,3.8,0,0,1-4.53,3.73,3.83,3.83,0,0,1-2-1,3.83,3.83,0,0,1-.82-4.14,3.87,3.87,0,0,1,1.4-1.7,3.79,3.79,0,0,1,2.11-.64,3.84,3.84,0,0,1,2.68,1.12,3.78,3.78,0,0,1,1.11,2.67Z"/><path class="cls-3" d="M102.92,143.88c-.51-5.14-.56-24.58,23.69-45C143.76,84.48,148.4,72.33,149.43,65c-.28-1.18-.57-2.33-.93-3.48a51.65,51.65,0,0,1-9.16,18.27c-6.08,8-27.22,23.66-37.07,37.39-7.3,10.21-10.46,25-11,28.92a65.35,65.35,0,0,0,11.68-2.19Z"/><path class="cls-3" d="M146,91.26A39.65,39.65,0,0,0,151.13,78a66,66,0,0,0-.57-6.88c-2.64,14-14.85,26.09-23.16,38.35a74.81,74.81,0,0,0-11.3,29.15,67.07,67.07,0,0,0,8.94-5.76C125.61,118.74,137.63,105.07,146,91.26Z"/><path class="cls-3" d="M146.76,56.44c-.17-.44-.33-.88-.51-1.31C139.79,77.25,106.4,93.18,87.88,107,70.3,120.18,65.24,139.88,64.5,143.17A65.7,65.7,0,0,0,78,146c3.59-22.26,13.65-34.06,42.15-54.75C141,76.12,145.72,62.75,146.76,56.44Z"/><path class="cls-1" d="M87.88,107c18.52-13.84,51.9-29.77,58.37-51.88-.54-1.32-1.1-2.63-1.7-3.91l-.31.41c-1.82,9.13-13.86,20.33-20.13,23.94-6.59,3.8-37.52,20.77-38.92,23.36-3-1.4-29.34-11.2-44.34-10.58-14.64.57-14.4,2.32-19.43,6.51-.29.48-.56,1-.82,1.44a66.41,66.41,0,0,0,43.9,46.85C65.24,139.88,70.29,120.17,87.88,107Z"/><path class="cls-1" d="M127.39,109.45c8.31-12.28,20.52-24.39,23.17-38.35-.29-2.07-.65-4.12-1.14-6.13-1,7.37-5.67,19.51-22.85,34-24.26,20.41-24.21,39.86-23.65,45a66.23,66.23,0,0,0,13.21-5.31A73.93,73.93,0,0,1,127.39,109.45Z"/><path class="cls-1" d="M146,91.26c-8.39,13.81-20.42,27.48-21,41.58a66.22,66.22,0,0,0,26.15-52.75c0-.7,0-1.39-.06-2.09A39.83,39.83,0,0,1,146,91.26Z"/><path class="cls-1" d="M102.27,117.15c9.83-13.73,31-29.41,37.07-37.39a51.65,51.65,0,0,0,9.16-18.27c-.5-1.71-1.1-3.41-1.74-5.05-1,6.31-5.81,19.68-26.65,34.82C91.58,111.94,81.54,123.75,78,146c2.29.25,4.6.38,6.91.4q3.23,0,6.38-.32C91.81,142.18,95,127.33,102.27,117.15Z"/></svg>