<svg id="Layer_1" data-name="Layer 1" xmlns="http://www.w3.org/2000/svg" viewBox="0 0 64 64"><defs><style>.cls-1{fill:#0d74b8;}.cls-2{fill:#fff;}.cls-3{fill:#f47820;}</style></defs><path class="cls-1" d="M1.4,39.14c2.43-2,2.31-2.86,9.38-3.14,7.22-.29,19.92,4.43,21.37,5.1.67-1.25,15.59-9.43,18.77-11.26s8.84-7.15,9.71-11.56l.15-.19A32,32,0,0,0,1,39.83C1.12,39.61,1.26,39.38,1.4,39.14Z"/><path class="cls-2" d="M1.24,39.27s.29-8.18,9.83-9.43,8-.48,8-.48,3.47-6.26,9.15-6.55,6.55-.1,7.12-.58a1,1,0,0,0,0-1.73,1.76,1.76,0,0,1,2.41,1.83c1.64-.19,5.68-1.16,5.68-3.18s-.77-1.44-.77-1.44,3.18.77,3.18,2.5-2.22,2.6-2.22,2.6a38.35,38.35,0,0,0,7.42.48c2.5-.29,9.43-3.33,9.72-5.66C60.36,22.14,54.1,28,50.92,29.84s-18.1,10-18.77,11.26C30.7,40.43,18,35.71,10.78,36S3.84,37.15,1.24,39.27Zm26.67-14a4.24,4.24,0,1,0,4.24,4.24A4.23,4.23,0,0,0,27.91,25.31Z"/><path class="cls-2" d="M28,28.41a1.83,1.83,0,1,1-1.83-1.83A1.83,1.83,0,0,1,28,28.41Z"/><path class="cls-2" d="M40.7,62.79c-.25-2.47-.28-11.85,11.43-21.7,8.27-7,10.52-12.82,11-16.37-.14-.57-.28-1.13-.45-1.68a24.89,24.89,0,0,1-4.42,8.81c-2.93,3.85-13.14,11.41-17.88,18-3.52,4.91-5,12.06-5.32,14A30.66,30.66,0,0,0,40.7,62.79Z"/><path class="cls-2" d="M61.51,37.4A19.16,19.16,0,0,0,64,31a32.58,32.58,0,0,0-.28-3.31c-1.27,6.74-7.16,12.57-11.17,18.49a36.11,36.11,0,0,0-5.45,14.06,32.38,32.38,0,0,0,4.32-2.77C51.65,50.65,57.46,44.06,61.51,37.4Z"/><path class="cls-2" d="M61.86,20.6,61.62,20C58.49,30.64,42.39,38.33,33.46,45A31.73,31.73,0,0,0,22.18,62.44a31.72,31.72,0,0,0,6.49,1.37C30.4,53.07,35.25,47.38,49,37.4,59.06,30.09,61.36,23.65,61.86,20.6Z"/><path class="cls-3" d="M33.46,45c8.93-6.67,25-14.36,28.16-25-.26-.63-.54-1.27-.84-1.88l-.15.19c-.87,4.41-6.68,9.81-9.71,11.56s-18.1,10-18.77,11.26C30.7,40.43,18,35.71,10.78,36c-7.07.28-6.95,1.12-9.38,3.14-.14.24-.28.47-.4.69A32.07,32.07,0,0,0,22.18,62.44,31.73,31.73,0,0,1,33.46,45Z"/><path class="cls-3" d="M52.52,46.17c4-5.92,9.9-11.75,11.17-18.49-.14-1-.31-2-.54-3-.5,3.55-2.75,9.41-11,16.37C40.42,50.94,40.45,60.32,40.7,62.79a32.13,32.13,0,0,0,6.37-2.56A36.11,36.11,0,0,1,52.52,46.17Z"/><path class="cls-3" d="M61.51,37.4c-4,6.66-9.86,13.25-10.12,20.06A32,32,0,0,0,64,32c0-.34,0-.67,0-1A19.16,19.16,0,0,1,61.51,37.4Z"/><path class="cls-3" d="M40.4,49.89c4.74-6.63,15-14.19,17.88-18A24.89,24.89,0,0,0,62.7,23c-.24-.83-.53-1.64-.84-2.44-.5,3-2.8,9.49-12.86,16.8-13.75,10-18.6,15.67-20.33,26.41A30.4,30.4,0,0,0,32,64c1,0,2.07,0,3.08-.15C35.36,62,36.88,54.8,40.4,49.89Z"/></svg>